<svg width="2816" height="1536" viewBox="0 0 2816 1536" fill="none" xmlns="http://www.w3.org/2000/svg">
<g id="&#215;&#153;&#215;&#153;&#215;&#159; &#215;&#145;&#215;&#153;&#215;&#168;&#215;&#148; &#215;&#149;&#215;&#144;&#215;&#156;&#215;&#155;&#215;&#149;&#215;&#148;&#215;&#149;&#215;&#156;" clip-path="url(#clip0_1_2)">
<path id="Vector" d="M0 0H2816V1536H0V0Z" fill="#FCFEFE"/>
<path id="Vector_2" d="M984.083 514.194C1007.98 513.066 1033.18 514.329 1057.17 514.125C1080.84 513.923 1091.27 537.663 1088.84 558.223C1086.14 561.729 1084.45 561.483 1079.84 563.409C1079.34 565.432 1082.24 580.496 1082.38 586.17C1079.99 591.426 1079.08 592.501 1075.49 597.044C1077.24 622.507 1084.9 661.839 1088.1 689.577C1089.81 703.502 1091.13 717.472 1092.06 731.47C1092.75 742.596 1093.67 780.339 1097.7 788.193C1112.36 816.733 1135.92 833.071 1140.82 869.12C1143.42 888.284 1143.05 904.144 1143.02 923.725L1142.96 989.936L1143.04 1214.03C1142.91 1228.25 1141.95 1238.7 1133.64 1250.73C1117.39 1274.23 1087.9 1269.73 1062.78 1269.43L987.803 1269.61C964.652 1269.73 933.079 1273.65 916.386 1254.6C898.743 1234.47 903.907 1194.65 903.953 1169.03L904.019 1058.27L904.013 944.452C903.986 921.741 902.928 894.365 905.869 872.429C908.703 852.529 918.971 829.315 932.519 814.288C952.449 792.183 952.286 779.774 953.467 751.018C955.582 699.566 964.839 648.411 971.802 597.451C961.403 584.122 964.702 577.666 968.241 562.705C966.139 562.244 964.065 561.681 961.982 561.138C953.276 554.067 959.522 536.363 964.218 528.233C969.015 519.927 975.011 516.397 984.083 514.194Z" fill="#070B0B"/>
<path id="Vector_3" d="M1014.09 906.508C1035.5 903.633 1055.96 910.018 1070.19 926.547C1076.92 934.364 1081.1 942.838 1086.44 951.522C1098.08 952.509 1117.02 951.936 1129.19 951.936C1129.89 995.767 1129.15 1039.72 1129.46 1083.57C1129.53 1093.86 1129.31 1104.08 1129.83 1114.37C1118.07 1114.51 1097.23 1113.74 1086.6 1115.17C1072.92 1138.12 1064.72 1150.68 1037.65 1157.86C1011.25 1164.24 984.596 1152.32 969.944 1129.94C966.595 1124.83 963.442 1119.58 960.121 1114.44L917.891 1114.19L917.934 952.004C930.7 951.685 945.388 953.277 957.72 951.08C964.483 949.876 968.046 938.775 972.356 932.738C983.783 916.732 995.504 910.352 1014.09 906.508Z" fill="#FCFEFE"/>
<path id="Vector_4" d="M968.75 728.468L990.696 728.513C1010.64 747.933 1036.76 748.385 1056.68 728.624L1077.94 728.787C1080.45 749.576 1079.34 772.841 1084.82 792.562C1088.16 804.617 1100.44 817.229 1108.2 827.585C1134.71 862.944 1128.92 897.624 1129.54 938.707C1117.79 938.849 1106.05 938.793 1094.31 938.539C1088.54 927.434 1085.81 923.233 1077.27 914.145C1070.68 908.142 1065.79 904.384 1057.7 900.376C1039.2 891.219 1017.81 889.861 998.309 896.607C976.469 904.092 963.069 918.468 953.204 938.758L917.913 938.549C917.657 898.264 913.076 861.937 938.757 827.85C946.454 817.634 957.949 805.709 961.813 793.895C968.307 774.04 965.109 749.771 968.629 729.135L968.75 728.468Z" fill="#FCFEFE"/>
<path id="Vector_5" d="M967.032 823.678L972.042 824.193C975.168 826.371 974.042 824.985 975.516 828.527C975.014 836.73 959.958 852.188 954.881 862.933C948.762 875.885 950.637 903.412 946.503 908.948C931.595 906.93 935.543 890.934 937.103 880.328C940.504 857.203 951.716 840.537 967.032 823.678Z" fill="#070B0B"/>
<path id="Vector_6" d="M989.647 746.826C997.06 749.858 997.048 757.324 996.463 764.656C995.194 780.546 994.723 804.294 982.56 815.743C980.371 814.587 979.409 813.701 977.527 812.169C974.401 806.117 981.488 790.084 982.029 781.749C982.652 772.148 982.101 762.225 983.402 752.86C983.838 749.722 986.975 748.28 989.647 746.826Z" fill="#070B0B"/>
<path id="Vector_7" d="M1094.59 1128.02L1129.44 1128L1129.61 1207.75C1129.81 1234.05 1125.19 1255.83 1093.11 1255.99C1060.54 1256.15 1027.88 1256.06 995.289 1256.11C979.086 1256.14 962.487 1256.47 946.291 1255.54C912.966 1252.07 917.662 1213.63 917.701 1190.05L917.814 1128.06C929.249 1127.82 941.455 1128.06 952.951 1128.08C955.227 1132.12 957.807 1136.18 960.443 1140.01C991.23 1184.79 1059.08 1183.2 1088.59 1137.97C1090.69 1134.74 1092.64 1131.36 1094.59 1128.02Z" fill="#FCFEFE"/>
<path id="Vector_8" d="M1019.86 648.162C1034.23 647.598 1039.3 652.065 1049.62 660.924L1070.66 661.164C1072.09 677.835 1075.19 698.521 1076.97 715.854L1050.61 716.121C1041.82 724.24 1038.03 727.689 1026.23 729.698C1012.62 730.844 1005.74 725.079 996.605 716.194C988.376 715.744 978.119 715.924 969.736 715.872C971.665 697.48 974.238 679.446 976.3 661.142C983.491 661.129 990.682 661.06 997.872 660.935C1007.11 653.152 1008.17 651.393 1019.86 648.162Z" fill="#FCFEFE"/>
<path id="Vector_9" d="M1035.98 560.014C1040.44 562.856 1043.23 563.297 1048.35 564.588C1050.32 563.938 1057.09 561.582 1058.68 561.768C1078.82 564.131 1061.36 591.935 1061.87 596.842C1063.64 613.811 1065.69 631.359 1069.06 647.155L1069.27 648.135C1064.45 648.297 1060.2 648.118 1055.39 647.926C1035.32 630.42 1011.94 629.899 992.182 648.1L978.19 648.146L980.536 633.335C981.314 623.832 984.025 608.711 985.463 598.853C997.513 598.984 1035.83 601.739 1043.74 595.052C1048.73 583.515 1032.21 586.317 1026.77 585.888C1017.63 585.167 985.248 588.228 979.073 583.734C977.762 579.082 979.156 576.957 979.935 572.706C982.957 555.715 988.783 563.367 999.412 562.676C1012.88 561.801 1024.1 566.597 1035.98 560.014Z" fill="#FCFEFE"/>
<path id="Vector_10" d="M983.632 528.277C993.213 526.947 1053.24 527.552 1064.09 528.22C1070.8 532.75 1075.87 540.635 1073.67 549.025C1071.19 550.529 1072.55 550.037 1069.34 550.143C1065.32 547.72 1064.69 533.132 1054.84 541.537C1052.95 547.079 1053.19 549.851 1047.02 550.939C1043.52 549.381 1044.76 550.574 1042.94 547.493C1042.14 544.453 1042.06 544.2 1040.65 541.4C1037.66 539.425 1037.54 539.233 1034.07 539.122C1030.15 541.843 1030.09 544.794 1027.07 549.578C1017.57 554.948 1019.43 544.303 1015.09 539.877C1012.22 538.728 1011.63 539.091 1008.42 539.686C1004.78 542.618 1005.8 543.759 1003.38 548.821C1000.63 550.727 1000.81 550.708 997.48 550.726C992.52 548.004 994.293 539.885 987.475 539.284C980.046 538.629 982.445 545.721 977.703 549.928C973.986 550.752 975.385 551.018 972.505 549.223C969.963 542.223 976.882 531.462 983.632 528.277Z" fill="#FCFEFE"/>
<path id="Vector_11" d="M1350.52 669.02L1485.9 669.2C1495.87 669.183 1555.52 667.702 1560.95 671.346C1572.1 685.641 1595.35 788.706 1599.14 812.054C1610.89 884.241 1592.16 945.504 1527.42 985.406C1513.38 994.058 1495.86 999.435 1486.02 1013.54C1480.79 1021.02 1477.02 1031.47 1475.72 1040.48C1473.5 1055.92 1472.95 1184.5 1475.8 1198.52C1484.11 1239.48 1531.34 1229.7 1555.59 1246.28C1559.67 1249.07 1563.35 1253 1564.07 1258.07C1564.71 1262.54 1563.41 1265.51 1560.7 1268.96C1551.87 1269.78 1535.71 1269.57 1526.54 1269.6L1465.76 1269.62C1447.28 1269.61 1356.62 1271.38 1347.3 1267.05C1342.39 1258.83 1344.85 1252.08 1353.03 1247.09C1370.1 1236.04 1408.31 1233.59 1422.31 1219.69C1440.88 1201.26 1433.25 1139.43 1434.17 1113.69C1434.9 1093.41 1435.58 1047.71 1431.48 1031.98C1428.55 1020.37 1421.84 1010.06 1412.42 1002.66C1405.62 997.43 1393.82 991.604 1386.01 987.241C1370.85 978.75 1357.1 967.953 1345.26 955.238C1315.76 923.04 1305.14 887.533 1306.89 844.57C1307.57 830.439 1309.2 816.368 1311.76 802.454C1315.51 781.616 1338.26 680.366 1350.52 669.02Z" fill="#070B0B"/>
<path id="Vector_12" d="M1356.99 682.533C1421.07 683.522 1487.96 682.885 1552.15 682.583C1562.36 713.836 1571.14 745.536 1578.47 777.587C1590.74 831.946 1599.47 883.932 1564.71 932.815C1552.95 949.277 1537.85 963.074 1520.39 973.307C1498.36 986.135 1472.27 997.746 1465.71 1025.2C1458.09 1057.07 1462.68 1098.54 1461.28 1131.63C1462.25 1153.55 1459.6 1176.75 1462.21 1198.52C1466.9 1237.66 1505.82 1244.36 1534.74 1252.4C1538.3 1253.44 1540.57 1254.5 1543.9 1256C1484.29 1256.6 1423.5 1256.15 1363.87 1255.96C1395.01 1245.29 1446.67 1240.28 1446.97 1194.49C1447.31 1141.34 1449.02 1086.5 1445.06 1033.71C1440.57 995.891 1408.72 985.766 1381.71 968.792C1279.71 904.685 1329.78 772.296 1356.99 682.533Z" fill="#FCFEFE"/>
<path id="Vector_13" d="M1377.75 815.34C1439.32 808.642 1462.09 845.143 1518.85 846.371C1537.69 846.779 1549.62 841.43 1567.56 838.142C1569.87 837.719 1571.79 838.035 1573.8 839.205C1578.02 845.581 1575.65 866.043 1574.41 873.706C1568.64 909.288 1549.49 936.702 1520.47 957.474C1508.57 965.276 1496.93 970.74 1483.02 974.174C1452.48 981.646 1420.23 976.645 1393.38 960.278C1351.61 934.753 1330.97 891.427 1333.26 843.15C1333.4 840.288 1333.72 831.163 1335.59 829.233C1344.69 819.799 1365.36 816.93 1377.75 815.34Z" fill="#070B0B"/>
<path id="Vector_14" d="M1379.61 828.391C1445.36 820.121 1477.06 880.059 1563.37 852.011C1563.22 854.256 1563.04 856.498 1562.81 858.736C1559.21 896.234 1546.27 919.606 1517.35 943.426C1496.99 957.761 1475.67 965.123 1450.63 964.107C1421.67 962.668 1394.48 949.721 1375.11 928.142C1349.23 899.533 1345.66 872.507 1347.34 836.439C1359.55 832.157 1366.52 830.093 1379.61 828.391Z" fill="#FCFEFE"/>
<path id="Vector_15" d="M1369.79 859.106C1372.93 859.817 1372.92 859.755 1375.69 861.319C1378.12 864.905 1379.64 872.005 1381.02 876.577C1384.74 888.866 1390.07 897.959 1397.91 907.913C1404.96 916.875 1425.93 924.967 1428.13 933.919C1427.11 938.243 1427.74 936.648 1424.26 940.451C1397.02 933.596 1366.38 895.761 1365.38 866.9C1365.24 862.831 1367.13 861.557 1369.79 859.106Z" fill="#070B0B"/>
<path id="Vector_16" d="M1758.37 1013.32C1806.28 1011.98 1857.38 1014.47 1905.62 1013.17C1912.41 1012.99 1937.11 1012.19 1941.23 1016.29C1942.14 1020.3 1942.85 1026.17 1942.34 1030.22C1932.97 1104.25 1927.98 1180.01 1917.87 1253.83C1916.4 1258.76 1913.78 1262.89 1909.37 1265.7C1905.92 1267.9 1901.86 1269.03 1897.8 1269.43C1887.37 1270.46 1876.11 1269.35 1865.57 1269.4C1847.11 1269.49 1810.85 1271.88 1794.73 1268.62C1788.8 1267.43 1784.31 1265.62 1780.94 1260.3C1778.95 1257.14 1778.29 1253.59 1777.75 1249.95C1774.29 1226.87 1751.31 1023.86 1752.51 1019.26C1753.29 1016.31 1755.97 1014.87 1758.37 1013.32Z" fill="#070B0B"/>
<path id="Vector_17" d="M1922.75 1076.69C1924.65 1081.96 1914.55 1157.87 1912.24 1167.22C1900.08 1216.32 1828.25 1223.78 1795.42 1190.31C1780.7 1175.04 1779.94 1150.79 1777.68 1130.84C1775.59 1112.83 1773.64 1094.79 1771.85 1076.75L1922.75 1076.69Z" fill="#FCFEFE"/>
<path id="Vector_18" d="M1798.72 1093.81C1805.53 1096.17 1805.97 1097.58 1806.72 1104.73C1808.76 1124.44 1812.62 1144.4 1813.1 1164.18C1813.16 1166.54 1809.05 1169.17 1807.53 1170.3C1795.21 1165.2 1796.87 1119.84 1793.88 1106.92C1792.53 1101.09 1793.98 1097.32 1798.72 1093.81Z" fill="#070B0B"/>
<path id="Vector_19" d="M1765.53 1026.9L1929.35 1026.83C1927.59 1036.83 1926.5 1052.84 1925.46 1063.36C1912.44 1064.29 1887.59 1063.53 1873.65 1063.52L1770.24 1063.5C1768.37 1054.99 1766.81 1036.69 1765.53 1026.9Z" fill="#FCFEFE"/>
<path id="Vector_20" d="M1785.89 1199.88C1802.63 1215.72 1819.88 1222.84 1843.1 1223.95C1871.19 1225.3 1889.87 1217.81 1910.19 1199.45C1909.37 1208.7 1908.71 1218.56 1907.25 1227.69C1906.63 1235.6 1906.85 1248.78 1901.68 1254.5C1892.55 1257.95 1820.13 1255.65 1805.22 1255.88C1801.95 1255.93 1796.3 1254.65 1793.1 1253.28C1789.44 1247.99 1786.44 1208.6 1785.89 1199.88Z" fill="#FCFEFE"/>
<path id="Vector_21" d="M1707.86 615.334C1725.96 612.209 1744.1 620.48 1757.96 631.419C1781.26 623.291 1797.24 627.763 1813.83 645.479C1865.53 639 1863.98 674.95 1869.92 711.98C1885.65 810.17 1868.54 901.201 1843.51 995.812C1842.92 998.033 1837.7 1001.24 1834.24 998.489C1828.86 987.704 1842.38 940.474 1845.76 925.869C1860.52 868.156 1862.94 828.207 1861.76 769.783C1788.99 769.073 1716.01 770.332 1643.21 769.866C1634.44 769.81 1625.41 769.747 1616.66 770.047L1614.8 772.364L1613.32 772.493C1611.19 770.293 1609.41 768.152 1607.46 765.823C1602.47 736.231 1603.83 723.205 1609.09 693.474C1612.27 675.464 1612.79 657.693 1629.72 645.387C1640.56 637.509 1654.72 637.034 1667.41 639.331C1679.25 625.831 1689.76 618.229 1707.86 615.334Z" fill="#070B0B"/>
<path id="Vector_22" d="M1623.27 695.872L1853.6 695.845C1854.64 705.139 1862.93 749.3 1859.39 755.448L1855.25 755.807L1615.86 755.825C1615.8 740.674 1619.86 710.745 1623.27 695.872Z" fill="#FCFEFE"/>
<path id="Vector_23" d="M1712.41 628.268C1735.29 626.062 1738.06 637.246 1754.47 645.039C1760 647.663 1773.44 639.325 1783.39 641.132C1797.81 643.749 1799.73 654.762 1809.73 659.631C1814.25 661.834 1831.11 655.091 1838.67 660.287C1847.16 666.116 1850.04 673.173 1852.91 682.276C1829.29 681.215 1798.44 682.156 1774.25 682.173L1623.77 682.015C1626.81 669.135 1631.96 655.058 1647.09 652.482C1662.32 649.889 1672.02 660.486 1682.82 643.72C1689.27 633.696 1701.45 630.242 1712.41 628.268Z" fill="#FCFEFE"/>
<path id="Vector_24" d="M1229.64 266.433C1242.52 265.939 1255.44 266.569 1268.29 267.372C1292.83 268.906 1284.47 298.635 1282.56 315.503C1290.13 318.928 1291.44 320.313 1295.95 327.13L1296.29 342.089C1305.91 352.463 1304.43 369.204 1301.41 382.321C1300.5 386.292 1297.06 389.415 1294.19 392.239C1295.14 405.138 1294.83 419.762 1295.11 432.856L1296.69 513.067C1297.32 554.544 1291.62 573.587 1326.55 601.79C1336.16 609.557 1362.27 639.237 1356.84 652.038C1353.76 654.344 1355.2 653.865 1351.43 654.207C1343.69 651.281 1342.7 642.576 1338.46 636.366C1329.42 623.025 1316.77 611.092 1304.93 600.138C1280.33 577.386 1284.33 552.448 1283.07 521.652L1198.91 521.627C1199.02 546.505 1199.8 580.557 1179.8 597.732C1130.32 640.24 1126.76 664.312 1127.12 726.75L1127.08 754.535C1165.21 756.91 1203.38 758.335 1241.58 758.807C1260.41 758.881 1279.72 757.476 1298.59 757.395C1301.82 757.382 1302.35 758.593 1304.74 760.688C1305.93 764.939 1304.78 767.068 1301.74 770.116C1300.86 770.443 1265.81 771.931 1263.08 771.947C1218.15 772.207 1172.09 771.49 1127.32 767.786C1126.97 774.223 1130.67 799.376 1117.84 794.217C1115.75 791.657 1114.17 787.551 1114.11 784.275C1113.55 755.806 1114 726.026 1113.95 697.613C1114.01 665.398 1122.49 636.366 1145.16 612.481C1156.41 600.053 1179.5 583.752 1182.77 566.443C1186.47 546.91 1185.7 518.905 1186.1 498.597C1187.06 462.995 1187.73 427.387 1188.09 391.774C1175.58 379.625 1179.18 366.849 1180.07 350.574C1182 347.242 1183.61 345.303 1185.97 342.309C1185.8 327.962 1185.07 322.376 1199.35 315.652C1198.57 281.425 1183.56 268.884 1229.64 266.433Z" fill="#070B0B"/>
<path id="Vector_25" d="M1201.99 392.081C1228.08 392.418 1254.72 392.155 1280.86 392.17C1281.11 425.137 1282.38 458.094 1282.78 491.06C1282.85 496.731 1283.07 502.395 1282.63 508.056L1199.74 508.063C1200.08 469.395 1200.83 430.733 1201.99 392.081Z" fill="#FCFEFE"/>
<path id="Vector_26" d="M1193.59 352.986L1289.51 352.86C1289.47 361.796 1289.46 370.05 1288.88 378.979L1193.07 378.952C1192.7 371.746 1192.72 359.933 1193.59 352.986Z" fill="#FCFEFE"/>
<path id="Vector_27" d="M1228.77 279.466C1241.52 278.407 1259.81 279.747 1272.44 282.016C1271.76 293.314 1269.49 304.285 1268.94 315.863L1253.75 315.812L1213.25 315.813C1212.45 307.198 1211.21 300.037 1209.8 291.518C1207.75 279.137 1220.95 279.92 1228.77 279.466Z" fill="#FCFEFE"/>
<path id="Vector_28" d="M1201.01 329.034C1211.11 328.993 1278.17 327.628 1281.84 330.516C1283.51 333.337 1282.89 335.796 1282.66 339.2C1259.6 339.218 1222.67 340.41 1200.71 338.773L1199.74 337.133C1199.65 333.228 1199.72 332.719 1201.01 329.034Z" fill="#FCFEFE"/>
<path id="Vector_29" d="M1615.96 889.392C1626.68 892.403 1628.3 921.844 1631.09 932.491C1647.56 995.302 1657.15 1057.66 1654.64 1122.77C1653.57 1150.47 1648.78 1177.6 1647.66 1204.64C1651.53 1208.3 1652.84 1209.59 1658.11 1211.65C1675.06 1218.28 1749.91 1207.67 1759.45 1218.3C1760.31 1224.07 1757.04 1226.49 1751.68 1226.71C1746.22 1226.94 1740.4 1226.96 1734.94 1226.86C1709.62 1226.41 1684.02 1227.63 1658.8 1225.76C1655.32 1225.51 1647.71 1221.35 1644.45 1219.67C1641.26 1237.17 1638.06 1255.06 1662.81 1256.07C1677.1 1256.17 1755.45 1254.44 1762.46 1257.61C1765.03 1260.8 1764.35 1259.27 1764.91 1263.5C1762.08 1270.58 1757.11 1270.04 1749.88 1269.44C1719.86 1266.94 1673.27 1274.93 1645.73 1265.9C1621.32 1257.89 1630.49 1221.66 1633.36 1203.23C1635.77 1187.12 1637.76 1170.95 1639.34 1154.74C1644.63 1097.72 1641.29 1040.23 1629.42 984.216C1625.58 965.675 1620.41 947.338 1616.24 928.866C1613.04 914.726 1609.42 903.123 1615.96 889.392Z" fill="#070B0B"/>
<path id="Vector_30" d="M1358.81 988.616C1364.57 989.93 1366.9 991.938 1367.19 997.9C1367.96 1013.91 1367.8 1029.97 1367.83 1045.99L1367.88 1125.67L1367.85 1185.31C1367.84 1196.59 1368.02 1208.37 1367.21 1219.61C1366.96 1223.1 1365.72 1223.52 1363.34 1225.47C1359.94 1226.13 1360.1 1226.23 1357.03 1224.8C1352.31 1219.5 1354.11 1191.04 1354.1 1182.03L1354.06 1103.05C1333.84 1105.74 1307.51 1106.5 1286.8 1107.91C1246.7 1108.35 1206.18 1110.21 1166.06 1105.77C1160.9 1105.2 1158.31 1104.72 1156.08 1099.85C1158.41 1089.1 1180.46 1093.59 1189.07 1094.1C1201.85 1094.78 1214.63 1095.23 1227.42 1095.47C1265.35 1096.22 1316.4 1093.94 1354.05 1089.9C1354.12 1069.43 1354.06 1048.97 1353.87 1028.5C1353.81 1017.79 1353.36 1005.75 1354.6 995.152C1354.89 992.684 1357.13 990.409 1358.81 988.616Z" fill="#070B0B"/>
<path id="Vector_31" d="M1149.6 1254.08C1166.55 1257.33 1192.64 1256.19 1210.86 1256.17C1238.36 1256.03 1265.86 1256.05 1293.36 1256.22C1301.84 1256.22 1322.34 1254.44 1328.6 1257.45C1332.31 1262.73 1329.55 1265.8 1325.25 1268.95C1307.74 1271.05 1274.58 1269.51 1255.16 1269.82C1224.7 1269.65 1194.14 1270.32 1163.69 1269.57C1157.02 1269.4 1145.66 1269.33 1144.67 1261.41C1145.86 1257.4 1146.5 1256.96 1149.6 1254.08Z" fill="#070B0B"/>
<path id="Vector_32" d="M1650.79 799.145L1655.41 800.718C1659.25 805.774 1658.83 836.887 1659.42 845.76C1660.29 860.099 1662.04 874.372 1664.67 888.496C1670.44 918.082 1680 947.959 1683.59 977.706C1683.87 980.027 1679.58 982.764 1677.95 983.922C1670.57 980.329 1670.6 975.993 1668.96 968.432C1659.05 922.531 1645.51 877.159 1644.9 829.798C1644.78 820.094 1642.19 804.614 1650.79 799.145Z" fill="#070B0B"/>
<path id="Vector_33" d="M1192.25 616.551C1195.41 618.066 1195.71 618.082 1197.88 620.715C1198.34 622.824 1198.87 624.912 1197.33 626.955C1188.28 638.98 1176.53 646.554 1169.49 660.917C1160.09 680.106 1163.01 699.769 1161.55 720.043C1161.17 725.286 1159.43 726.741 1155.4 729.717C1143.79 723.31 1148.52 716.371 1148.19 704.887C1147.15 668.218 1161.2 636.958 1192.25 616.551Z" fill="#070B0B"/>
<path id="Vector_34" d="M1680.02 1008.86C1683.66 1008.81 1684.35 1008.51 1687.18 1010.44C1692.36 1017.35 1695.53 1045.05 1690.09 1052.4C1686.48 1052.42 1686.1 1052.6 1683.12 1050.84C1678.06 1044.44 1674.78 1015.78 1680.02 1008.86Z" fill="#070B0B"/>
</g>
<defs>
<clipPath id="clip0_1_2">
<rect width="2816" height="1536" fill="white"/>
</clipPath>
</defs>
</svg>
