<svg width="2816" height="1536" viewBox="0 0 2816 1536" fill="none" xmlns="http://www.w3.org/2000/svg">
<g id="&#215;&#158;&#215;&#145;&#215;&#166;&#215;&#162;&#215;&#153;&#215;&#157;" clip-path="url(#clip0_1_2)">
<path id="Vector" d="M0 0H2816V1536H0V0Z" fill="white"/>
<path id="Vector_2" d="M1400.8 356.062C1460.84 344.42 1462.61 467.884 1450.49 505.117C1463.68 504.913 1483.34 503.617 1492.72 514.336C1509.87 533.931 1526.79 554.75 1543.27 574.971C1553.81 587.904 1566.03 601.219 1573.37 616.197C1575.46 620.461 1575.98 639.009 1576.03 643.99L1575.99 894.398L1576.03 974.183C1576.03 985.598 1576.3 997.122 1575.89 1008.52C1574.17 1056.28 1529.92 1050.12 1496.43 1050.1L1414.46 1050.02L1322.54 1050.15C1284.46 1050.2 1240.08 1056.29 1239.83 1003.17L1239.85 726.404C1239.85 713.215 1239.22 623.976 1241.09 618.286C1245.69 604.261 1309.9 530.702 1323.01 515.413C1333.2 503.546 1350.3 505.498 1364.34 505.615C1356.65 469.898 1355.73 411.864 1374.48 379.266C1380.12 369.478 1389.44 359.011 1400.8 356.062Z" fill="#050505"/>
<path id="Vector_3" d="M1385.16 524.312L1384.66 521.475C1388.1 520.453 1414.95 520.362 1419.33 520.733C1431.95 521.8 1469.93 517.593 1479 524.558C1485 527.018 1556.08 614.832 1559.16 626.512C1560.61 632.022 1560.32 672.223 1560.28 682.54C1560.16 711.369 1560.19 740.197 1560.37 769.025L1560.68 928.754C1560.71 946.861 1560.62 964.967 1560.43 983.073C1560.24 1002.11 1564.43 1032.4 1536.52 1033.96C1522.22 1034.76 1507.08 1034.2 1492.71 1034.19L1404.88 1034.16L1323.71 1034.17C1308.06 1034.17 1290.26 1035.04 1275 1032.72C1265.12 1031.21 1255.93 1018.16 1255.78 1008.23C1255.31 978.298 1255.33 948.421 1255.3 918.5L1255.28 749.863L1255.21 668.306C1255.2 655.426 1253.34 636.145 1256.55 624.004C1258.13 618.053 1331.49 527.225 1337.74 524.001C1345.06 520.227 1358.65 519.527 1366.47 521.753C1369.62 526.282 1377.73 551.054 1381.09 558.876C1357.33 578.941 1361.47 612.123 1387.81 627.236C1397.7 632.789 1409.4 634.147 1420.3 631.006C1430.91 627.92 1439.86 620.756 1445.19 611.082C1463.4 578.445 1432.52 540.207 1395.04 551.376C1390.98 542.012 1388.36 534.014 1385.16 524.312Z" fill="white"/>
<path id="Vector_4" d="M1404.53 371.995C1432.26 370.22 1438.49 418.024 1440.25 438.066C1442.24 460.775 1438.94 482.841 1434.64 505.081L1415.25 505.077L1380.35 505.324C1375.69 469.827 1366.65 392.208 1404.53 371.995Z" fill="white"/>
<path id="Vector_5" d="M1406.08 564.827C1430.78 567.014 1435.93 581.087 1432.23 602.818C1417.61 620.369 1403.04 620.851 1386.56 606.296C1381.94 599.319 1378.03 578.986 1387.79 577.154C1394.91 582.046 1397.18 595.769 1407.15 596.276C1427.34 589.742 1403.64 574.897 1403.48 566.755L1406.08 564.827Z" fill="white"/>
<path id="Vector_6" d="M1685.01 968.203C1718.56 965.349 1731.82 995.952 1742.8 1022C1747.23 997.789 1770.86 962.85 1799.38 968.764C1808.6 970.677 1817.44 976.552 1822.58 984.436C1827.51 991.949 1829.22 1001.12 1827.33 1009.91C1824.6 1022.58 1816.69 1029.16 1806.41 1035.64C1827.07 1036.23 1848.8 1035.65 1869.37 1036.56C1871.4 1036.65 1876.26 1039.05 1878.29 1040.06C1880.84 1050.1 1882.6 1094.11 1878.61 1102.2C1873.35 1107.11 1867.56 1106.04 1860.25 1106.05C1860.88 1111.55 1860.77 1118.14 1860.73 1123.74C1860.51 1158 1861.64 1192.41 1860.47 1226.63C1860.21 1234.06 1856.45 1239.61 1850.77 1244.12C1848.56 1245.25 1842.09 1248.77 1839.98 1248.81C1827.53 1249.02 1814.82 1249.01 1802.39 1249.02L1725 1249.01L1671.62 1249.12C1658.72 1249.14 1641.83 1251.33 1631.86 1242.04C1620.58 1231.37 1624.52 1210.2 1623.9 1196.22C1622.64 1168.15 1626.45 1136.22 1623.78 1108.59C1621.95 1106.12 1608.73 1105.43 1606.85 1102.08C1603.22 1095.14 1602.81 1043.93 1607.52 1040.69C1618.03 1033.47 1663.2 1036.13 1676.96 1035.91C1668.68 1029.04 1661.38 1023.12 1658.46 1012.34C1652.57 990.583 1664.82 974.27 1685.01 968.203Z" fill="#050505"/>
<path id="Vector_7" d="M1774.13 1106.43C1791.57 1105.15 1826.43 1106.36 1845.19 1106.4L1845.24 1184.34C1845.25 1194.17 1846.99 1223.71 1841.91 1230.61C1834.87 1235.38 1785.67 1233.03 1774.13 1233.03V1106.43Z" fill="white"/>
<path id="Vector_8" d="M1639.92 1106.19C1657.12 1106.92 1692.9 1106.98 1709.89 1106.01L1710.07 1233.06C1697.82 1232.81 1651.09 1234.55 1643.94 1231.08C1637.65 1222.97 1639.71 1194.22 1639.73 1182.73L1639.92 1106.19Z" fill="white"/>
<path id="Vector_9" d="M1726.22 1051.32C1735.87 1051.74 1748.2 1051.35 1758.06 1051.33L1758.2 1233.03L1726.17 1232.79L1726.22 1051.32Z" fill="white"/>
<path id="Vector_10" d="M1774.21 1051.57C1798.17 1051.79 1842.69 1049.8 1864.68 1052.29V1089.66C1858.04 1091.79 1784.84 1090.13 1774.03 1090.09C1773.94 1077.25 1774 1064.41 1774.21 1051.57Z" fill="white"/>
<path id="Vector_11" d="M1640.15 1051.49C1652.1 1051.35 1699.55 1050.8 1708.22 1052.65C1710.96 1055.69 1710.03 1083.88 1710.02 1089.83C1706.77 1090.1 1703.51 1090.3 1700.25 1090.44L1620.02 1090.24C1620.27 1077.52 1620.22 1064.52 1620.31 1051.76C1626.73 1051.85 1633.68 1051.6 1640.15 1051.49Z" fill="white"/>
<path id="Vector_12" d="M1685.83 984.206C1692.08 983.864 1694.83 983.337 1700.48 986.815C1714.71 995.584 1727.12 1019.5 1730.83 1035.11L1718.68 1032.83C1701.52 1028.31 1683.51 1024.75 1673.13 1009.97L1672.31 999.23C1676.82 990.158 1677.18 989.26 1685.83 984.206Z" fill="white"/>
<path id="Vector_13" d="M1788.9 984.209C1803.99 983.412 1805.68 987.371 1812.31 1000.25C1808.56 1023.35 1793.27 1025.06 1773.39 1030.89C1769.56 1032.05 1759.16 1034.22 1755.5 1034.06L1754.72 1032.82C1754.7 1031.23 1754.77 1029.53 1755.42 1028.07C1763.17 1010.81 1771.35 992.575 1788.9 984.209Z" fill="white"/>
<path id="Vector_14" d="M1086.92 849.66C1126.73 843.848 1159.98 866.303 1171.66 904.528C1175.23 916.198 1174.9 927.962 1174.99 940.013C1182.67 939.936 1207.21 938.629 1210.21 942.461C1223.79 959.825 1178.75 955.609 1175.43 955.626C1175.52 966.713 1179.46 992.002 1167.07 995.116C1155.19 992.021 1159.11 966.088 1159.24 955.449L1038.12 955.511C1038.01 965.129 1041.9 991.704 1031.91 995.732C1016.65 994.069 1023.22 977.55 1021.99 966.746C1021.64 963.607 1022.03 958.639 1022.05 955.299C1008.9 956.319 988.712 955.711 975.107 955.714C973.948 980.189 971.178 1005.98 969.135 1030.43L958.935 1155.51C957.294 1176.11 953.924 1199.21 954.065 1219.93C954.104 1225.69 959 1229.07 963.212 1232.48C1015.48 1234.37 1076.24 1232.77 1129.18 1232.79L1198.29 1232.81C1211.26 1232.82 1227.86 1233.3 1240.45 1232.09C1243.33 1230.06 1246.32 1227.13 1248.97 1224.72C1249.1 1218.27 1248.95 1214.44 1248.36 1208.01C1246.23 1188.54 1232.22 1074.6 1236.29 1065.09C1237.33 1062.67 1238.28 1062.04 1240.65 1061.11C1243.18 1061.47 1249.7 1064.78 1250.06 1067.03C1251.48 1075.96 1252.17 1085.18 1252.92 1094.2C1256.31 1135.11 1261.33 1175.84 1265.58 1216.66C1266.39 1224.44 1262.71 1232.29 1257.82 1238.16C1253.07 1243.86 1244.41 1247.86 1237.05 1248.67C1219.08 1249.04 1201 1248.9 1183 1248.9H1076.93L1004.09 1249.06C983.802 1249.12 953.263 1253.79 941.128 1233.12C933.85 1220.73 938.798 1193.51 940.082 1178.88L947.027 1099.92L955.027 1007.38C956.546 987.619 957.695 966.833 960.231 947.174C960.473 945.295 963.837 941.841 965.231 940.293C984.396 939.85 1003.57 939.828 1022.73 940.227C1021.8 917.279 1024.24 897.316 1038.65 878.237C1050.34 862.71 1067.69 852.436 1086.92 849.66Z" fill="#050505"/>
<path id="Vector_15" d="M1090.59 865.317C1091.64 865.236 1092.69 865.171 1093.74 865.123C1111.4 864.325 1125.51 867.828 1138.54 880.291C1157.74 898.647 1158.67 915.853 1159.45 940.109L1106.75 940.206L1038.39 940.104C1038.04 919.795 1038.32 905.935 1051.42 888.507C1061.08 875.651 1074.58 867.336 1090.59 865.317Z" fill="white"/>
<path id="Vector_16" d="M1861.11 297.289C1874.1 295.29 1876.19 306.525 1874.38 316.6C1862.02 385.766 1850.98 455.571 1836.63 524.239C1836.2 526.28 1832.86 527.483 1831.15 527.89C1816.77 526.21 1791.16 490.388 1775.93 481.54C1765.16 491.709 1751.73 506.961 1741.17 518.141L1665.09 598.194C1654.16 609.763 1643.53 621.536 1632.76 633.24C1628.56 637.795 1622.79 640.956 1616.77 638.256C1613.15 633.603 1613.97 630.31 1617.83 625.7C1626.09 615.846 1635.1 606.495 1643.88 597.089L1699.6 538.189L1747.59 487.582C1754.92 479.861 1762.59 471.574 1770.18 464.059C1771.72 462.532 1774.75 462.219 1776.88 461.953C1784.9 464.401 1820.08 499.672 1825.26 507.36C1826.51 492.254 1832.45 462.793 1835.25 446.914C1841.75 409.59 1848.45 372.301 1855.35 335.049C1857.12 327.087 1857.77 320.921 1859.95 312.495C1842.52 318.994 1801.03 328.246 1780.89 333.026C1746.28 341.24 1706.97 352.169 1672.54 358.868C1680.73 368.197 1713.78 394.628 1716.98 403.631C1717.71 405.681 1717.13 407.546 1716.27 409.459C1711.83 419.243 1643.87 487.387 1632.54 499.293C1612.61 520.247 1593.36 542.349 1572.56 562.427C1570.54 564.384 1568.41 566.417 1565.68 567.331C1563.12 568.186 1561.41 568.091 1558.98 567.034C1550.58 555.449 1576.92 534.402 1584.8 526.072L1660.13 446.505C1668.22 438.058 1692.9 413.792 1698.11 405.657C1689.07 397.295 1652.8 365.09 1650.05 356.304C1650.77 352.67 1652.54 349.051 1656.27 347.81C1667.71 343.999 1679.61 341.343 1691.3 338.463L1747.57 324.562C1780.92 316.523 1828.16 303.534 1861.11 297.289Z" fill="#050505"/>
<path id="Vector_17" d="M1078.75 336.871C1082.41 336.747 1082.84 336.571 1086.13 337.908C1092.25 343.356 1092.84 360.272 1096.66 370.113C1102.87 389.489 1115.89 397.379 1134.89 402.328C1142.49 404.307 1154.4 405.561 1157.31 414.465C1155.21 425.157 1123.45 425.589 1109.91 437.329C1090.64 454.039 1096.22 481.196 1086.3 491.173C1082.81 491.113 1077.59 490.731 1076.45 487.465C1070.47 470.298 1070.34 459.217 1061.07 443C1050.84 425.11 1009.72 427.492 1007.41 413.019C1011.55 401.924 1040.96 404.424 1055.79 390.961C1074.66 373.827 1069.39 346.622 1078.75 336.871Z" fill="#050505"/>
<path id="Vector_18" d="M1082.19 376.618C1083.24 377.685 1082.86 377.147 1083.47 378.233C1096.23 401.342 1097.41 402.897 1120.35 414.271C1099.81 423.734 1092.43 430.512 1082.95 451.176C1080.69 449.275 1077.13 440.847 1075.24 437.592C1068.69 426.337 1056.46 420.166 1045.61 413.783C1046.63 413.41 1047.63 413.014 1048.63 412.593C1066.43 405.076 1074.98 393.974 1082.19 376.618Z" fill="white"/>
<path id="Vector_19" d="M1263.53 285.807C1280.89 285.031 1273.38 305.313 1283.2 317.724C1287.92 327.431 1307.7 325.713 1313.81 331.412C1327.8 344.45 1295.7 346.388 1290.59 349.473C1276.15 358.177 1278.1 379.882 1271.24 387.97C1258.98 388.163 1257.94 375.696 1255.44 364.751C1250.1 341.342 1223.86 351.448 1217.71 336.962C1214.46 329.291 1240.24 326.391 1247.17 320.933C1259.75 311.028 1254.86 295.345 1263.53 285.807Z" fill="#050505"/>
<path id="Vector_20" d="M1266.58 322.467C1267.04 322.768 1279.18 336.52 1279.6 337.334C1278.99 340.241 1271.27 345.768 1268.22 352.175C1263.19 345.552 1259.99 342.018 1253.21 337.3C1258.43 332.172 1262.41 328.578 1266.58 322.467Z" fill="white"/>
<path id="Vector_21" d="M1059.28 569.425C1071.56 577.563 1064.25 586.31 1071.83 596.465C1077.14 603.594 1098.87 604.138 1100.01 614.062C1095.12 621.478 1080.4 618.813 1073.86 626.027C1065.43 635.332 1070.24 646.706 1061.36 655.044C1047.46 650.765 1055.56 636.384 1046.02 626.571C1040.11 620.504 1027.04 620.418 1020.84 615.008C1019.24 611.718 1019.49 613.411 1020.15 609.739C1025.6 602.014 1038.45 605.646 1044.95 598.727C1054.59 588.468 1047.66 576.907 1059.28 569.425Z" fill="#050505"/>
<path id="Vector_22" d="M971.196 735.363C980.514 733.576 990.074 736.93 996.234 744.147C1002.39 751.364 1004.2 761.332 1000.98 770.254C997.753 779.163 990 785.661 980.665 787.276C966.397 789.746 952.805 780.256 950.207 766.012C947.609 751.767 956.975 738.09 971.196 735.363Z" fill="#050505"/>
<path id="Vector_23" d="M1184.61 513.457L1188 514.618C1192.72 519.681 1189.66 529.476 1197.22 533.651C1202.4 536.512 1207.67 537.135 1212.67 540.037C1212.86 545.312 1200.82 546.003 1196.66 550.078C1190.06 556.553 1193.12 561.742 1188.32 569.775L1184.71 568.24C1181.15 564.115 1182.16 560.624 1180.9 555.465C1178.97 547.527 1161.88 547.151 1160.2 540.479C1162.49 537.961 1165.5 537.416 1168.81 536.38C1183.93 531.643 1179.33 524.288 1184.61 513.457Z" fill="#050505"/>
<path id="Vector_24" d="M1522.04 337.588C1529.77 335.853 1537.44 340.693 1539.2 348.411C1540.96 356.129 1536.14 363.817 1528.43 365.601C1520.68 367.394 1512.95 362.552 1511.19 354.799C1509.42 347.046 1514.28 339.331 1522.04 337.588Z" fill="#050505"/>
<path id="Vector_25" d="M954.194 482.828C974.121 486.823 976.43 506.723 958.154 512.202C941.022 514.15 933.845 491.671 954.194 482.828Z" fill="#050505"/>
</g>
<defs>
<clipPath id="clip0_1_2">
<rect width="2816" height="1536" fill="white"/>
</clipPath>
</defs>
</svg>
