<svg width="2816" height="1536" viewBox="0 0 2816 1536" fill="none" xmlns="http://www.w3.org/2000/svg">
<g id="&#215;&#160;&#215;&#167;&#215;&#153;&#215;&#149;&#215;&#159; &#215;&#155;&#215;&#145;&#215;&#153;&#215;&#161;&#215;&#148; &#215;&#149;&#215;&#151;&#215;&#147; &#215;&#164;&#215;&#162;&#215;&#158;&#215;&#153;" clip-path="url(#clip0_1_2)">
<path id="Vector" d="M0 0H2816V1536H0V0Z" fill="#FBFEFE"/>
<path id="Vector_2" d="M1766.66 397.471C1813.03 396.086 1907.21 403.176 1928.66 452.687C1949.17 457.642 1971.05 465.518 1986 480.909L1985.95 936.671L1985.93 1041.93C1985.95 1057.16 1987.1 1095.76 1983.89 1108.32C1977.66 1110.51 1968.62 1102.94 1963.56 1099.3C1952.9 1091.62 1942.61 1085.62 1930.11 1081.3C1922.29 1124.75 1877.74 1132.76 1840.65 1139.57C1843.27 1143.73 1845.2 1146.04 1844.39 1150.74C1841.38 1155.32 1760.76 1195.69 1748.81 1201.92C1691.06 1232.3 1633.14 1262.36 1575.05 1292.1C1563.44 1288.2 1548.06 1280.95 1536.41 1276.06L1463.54 1245.74L1379.95 1210.85C1365.67 1204.94 1347.3 1198.18 1333.74 1191.63C1330.79 1187.64 1331.23 1186.64 1331.34 1181.01C1325.88 1178.68 1317.07 1178.02 1310.78 1176.81C1283.62 1172.47 1238.52 1159.33 1233.98 1126.83C1231.06 1105.91 1232.33 1072.27 1232.34 1050.23L1232.38 897.25L1232.27 655.159L1232.11 589.445C1232.07 579.637 1231.56 562.74 1232.58 553.441C1233.16 548.252 1235.17 543.325 1238.38 539.208C1257.8 514.732 1322.75 506.264 1352.64 503.013C1348.01 482.343 1333.79 446.686 1336.72 427.149C1337.69 420.664 1344.81 412.447 1351.18 409.238C1384.08 392.662 1401.24 411.882 1427.15 419.766L1428.21 420.083C1446.51 411.721 1466.08 407.097 1485.97 412.564C1490.4 413.153 1497.24 420.718 1495.02 425.289C1482.67 450.777 1473.87 476.211 1463.98 502.598C1498.1 506.73 1550.41 513.468 1577.32 537.238C1588.28 546.926 1585.12 587.374 1585.11 602.294L1584.99 688.176L1584.96 957.052C1601.01 949.039 1606.66 944.349 1624.28 949.842C1625.6 836.031 1624.59 720.144 1624.49 606.231L1624.4 508.059C1624.39 495.481 1623.02 466.876 1625.25 456.206C1635.58 406.709 1731.76 399.225 1766.66 397.471Z" fill="#090E0C"/>
<path id="Vector_3" d="M1638.14 486.61C1698.14 531.847 1859.3 535.802 1915.89 486.153C1917.18 607.068 1915.95 729.937 1915.96 851.057L1916 1003.62C1916.02 1028.76 1916.2 1054 1916.09 1079.13C1916.07 1082.41 1915.42 1086.56 1914.2 1089.59C1908.74 1103.26 1893.53 1110 1881.01 1115.64C1861.92 1123.04 1842.97 1125.93 1822.72 1127.28C1828.89 1123.26 1837.58 1119.9 1842.1 1114.06C1849.52 1104.48 1830.53 1093.4 1824.02 1089.26C1853.29 1073.52 1849.28 1071.29 1823.98 1052.32C1835.95 1045.96 1858.97 1036.14 1833.61 1027.05C1768.41 1003.67 1703.26 977.679 1637.88 955.033C1637.53 932.855 1637.5 910.246 1637.74 888.073C1639.17 754.479 1635.83 620.133 1638.14 486.61Z" fill="#FBFEFE"/>
<path id="Vector_4" d="M1670.89 638.175C1675.02 640.081 1678.02 642.074 1678.03 647.109C1678.06 659.582 1678.03 672.059 1678.02 684.533L1677.97 763.176C1677.91 815.513 1677.95 867.916 1678.1 920.254C1678.13 929.235 1678.91 930.774 1672.99 936.465C1667.27 934.252 1665.03 933.622 1665.01 927.006C1664.74 860.318 1664.91 793.621 1664.93 726.931L1664.88 671.36C1664.87 663.21 1664.59 653.664 1665.26 645.596C1665.56 641.976 1668.1 640.156 1670.89 638.175Z" fill="#090E0C"/>
<path id="Vector_5" d="M1669.71 549.364C1673.14 549.96 1673.39 549.906 1676.18 551.824C1680.13 557.535 1677.82 592.579 1677.94 601.445C1678 606.742 1676.85 608.41 1673.08 611.7C1665.49 609.71 1664.02 603.309 1664.71 596.206C1665.86 584.439 1661.05 556.858 1669.71 549.364Z" fill="#090E0C"/>
<path id="Vector_6" d="M1245.98 698.422C1316.28 739.609 1501.66 740.582 1571.39 698.328C1570.57 726.819 1571.45 759.596 1571.47 788.368L1571.15 963.187C1544.67 976.449 1512.16 990.103 1484.76 1002.54L1398.27 1041.73C1388.04 1046.35 1330.62 1069.26 1330.51 1077.98C1333.35 1084.56 1344.61 1088.43 1351.44 1091.94C1346.29 1095.43 1342.5 1098.27 1337.64 1102.17C1331.54 1101.42 1325.44 1100.62 1319.36 1099.76C1297.34 1096.58 1259.71 1088.83 1246.04 1070.58L1245.98 698.422Z" fill="#FBFEFE"/>
<path id="Vector_7" d="M1609.48 960.88C1611.88 960.74 1614.26 960.935 1616.55 961.753C1676.13 983.058 1735.42 1005.25 1794.91 1026.84C1804.12 1030.18 1813.31 1033.45 1822.28 1037.42C1807.38 1046.56 1779.54 1059.94 1762.93 1068.64L1643.5 1131.28C1623.47 1141.77 1594.75 1157.21 1573.89 1167.81C1572.66 1167.63 1571.62 1167.47 1570.76 1167.34C1543.89 1155.31 1512.77 1143.28 1485.44 1132.12L1352.42 1077.36C1382.16 1062.71 1418.33 1047.53 1449.02 1033.63L1609.48 960.88Z" fill="#FBFEFE"/>
<path id="Vector_8" d="M1929.63 466.48C1945.44 470.513 1960.31 476.843 1973.05 487.182C1972.38 510.229 1972.93 536.082 1972.92 559.306L1972.91 698.156L1973.08 1089.18C1955.73 1076.88 1949.4 1073.79 1929.32 1067.05C1927.77 976.919 1929.2 883.489 1929.18 793.085C1929.17 684.846 1927.79 574.501 1929.63 466.48Z" fill="#FBFEFE"/>
<path id="Vector_9" d="M1752.75 411.707C1789.28 406.864 1875.68 416.525 1903.06 440.258C1958.47 488.296 1819.25 505.983 1800.23 507.737C1760.17 510.798 1676.49 503.93 1648.43 476.944C1600.96 431.292 1733.6 412.598 1752.75 411.707Z" fill="#FBFEFE"/>
<path id="Vector_10" d="M1756.84 418.603C1788.14 415.48 1835.87 419.798 1862.88 436.509C1888.03 452.073 1880.29 476.29 1855.71 486.952C1834.71 496.061 1818.83 498.415 1796.5 500.886C1770.06 501.592 1680.93 501.846 1676.18 460.473C1672.75 430.608 1732.53 420.889 1756.84 418.603Z" fill="#090E0C"/>
<path id="Vector_11" d="M1765.22 431.55C1787.02 429.04 1842.8 435.759 1858.02 449.146C1890.71 477.908 1802.18 486.633 1790.24 487.588C1775.32 488.361 1760.36 487.794 1745.54 485.894C1723.91 483.036 1700.06 478.159 1686.26 460.138C1700.71 437.243 1740.09 433.065 1765.22 431.55Z" fill="#FBFEFE"/>
<path id="Vector_12" d="M1767.97 437.254C1785.42 436.509 1843.62 438.293 1826 469.67C1811.42 478.84 1803.1 479.746 1786.22 481.817C1772.34 482.237 1742.74 481.13 1732.65 472.406C1703.24 446.951 1754.96 438.612 1767.97 437.254Z" fill="#090E0C"/>
<path id="Vector_13" d="M1763 451.261C1782.47 449.814 1800.91 450.086 1818.2 459.89C1807.19 465.29 1802.97 466.152 1790.74 467.678C1779.61 468.275 1747.4 468.794 1740.29 460.124L1740.61 458.15C1746.27 453.371 1755.62 452.543 1763 451.261Z" fill="#FBFEFE"/>
<path id="Vector_14" d="M1246.08 573.567C1314.15 616.728 1501.31 613.827 1571.19 573.844C1571.92 591.095 1572.2 613.53 1571.28 630.804C1569.54 632.896 1567.71 634.846 1565.59 636.553C1526.36 668.104 1398.24 668.608 1349.23 663.144C1320.53 659.944 1264.93 653.489 1245.89 629.707L1246.08 573.567Z" fill="#FBFEFE"/>
<path id="Vector_15" d="M1571.53 649.228C1571.57 659.955 1571.54 670.011 1571.11 680.726C1521.56 728.247 1309.37 727.079 1249.8 683.978C1244.1 679.854 1245.89 656.695 1246.01 649.291C1319.68 690.053 1497.46 690.418 1571.53 649.228Z" fill="#FBFEFE"/>
<path id="Vector_16" d="M1460.72 516.503C1475.42 518.045 1576.24 530.219 1569.57 555.701C1562.42 566.555 1541.47 573.437 1529.31 577.021C1460.53 597.299 1319.54 598.846 1256.28 563.98C1253.36 561.808 1248.1 558.352 1247.78 554.612C1246.67 541.855 1271.14 533.877 1279.91 530.967C1304.65 522.759 1330.73 519.208 1356.47 516.547C1357.41 520.585 1358.54 524.793 1359.56 528.832C1348.38 531.59 1322.63 537.323 1326.72 554.982C1327.9 560.095 1336.98 565.524 1341.94 567.425C1367.65 577.023 1395.64 579.007 1423.2 577.702C1438.31 576.986 1500.02 571.944 1490.2 545.766C1486.61 536.177 1466.92 531.228 1457.34 527.7C1458.44 523.96 1459.56 520.228 1460.72 516.503Z" fill="#FBFEFE"/>
<path id="Vector_17" d="M1807.47 1096.99C1812.09 1098.35 1826.91 1103.62 1825.32 1109.53C1816.55 1115.46 1798.36 1124.11 1788.49 1129.19L1726.85 1161.28L1628.6 1212.73C1620.95 1216.71 1576.36 1241.56 1571.19 1239.59C1503.85 1213.92 1437.86 1182.58 1370.51 1157.01C1366.7 1154.75 1352.89 1149.36 1348.04 1147.37C1354.44 1140.63 1358.42 1138.66 1366.77 1134.59C1382.38 1138.37 1416.45 1154.23 1432.82 1160.68C1479.44 1179.04 1527.52 1201.45 1574.25 1218.99C1651.3 1178.35 1731.22 1138.8 1807.47 1096.99Z" fill="#FBFEFE"/>
<path id="Vector_18" d="M1808.39 1133.77C1813.99 1135.73 1824.67 1139.68 1826.19 1145.82C1821.84 1149.6 1806.4 1157.03 1800.58 1160.04L1746.32 1187.99L1639.15 1244.09C1633.96 1246.81 1576.36 1277.51 1573.45 1276.49C1553.88 1269.62 1529.75 1258.93 1510.5 1250.86L1368.31 1191.55C1363.73 1190.18 1353.46 1185.54 1348.64 1183.53C1353.49 1177.39 1359.84 1174.13 1366.53 1170.34C1379.82 1173.41 1410.8 1188.03 1424.72 1193.76L1574.18 1255.7C1600.51 1243.39 1631.33 1226.43 1657.4 1212.79L1808.39 1133.77Z" fill="#FBFEFE"/>
<path id="Vector_19" d="M1808.5 1059.99C1816.95 1063.43 1820.68 1065.96 1827.74 1071.62C1803.73 1086 1764.24 1104.78 1738.33 1118.37C1683.43 1147.44 1628.36 1176.2 1573.12 1204.64C1505.05 1176.46 1435.65 1146.65 1367.29 1119.46C1363.01 1116.99 1354.7 1114.5 1348.44 1110.95C1352.79 1106.79 1364.58 1097.2 1370.81 1099.66C1438.95 1126.5 1506.38 1155.87 1574.51 1182.76C1581.94 1178.06 1595.25 1171.55 1603.5 1167.22L1659.34 1137.99L1808.5 1059.99Z" fill="#FBFEFE"/>
<path id="Vector_20" d="M1462.21 423.42C1469.03 423.468 1473.88 423.878 1480.69 424.577C1457.5 470.393 1445.79 513.187 1436.85 563.041C1429.67 563.679 1422.26 563.996 1415.05 564.396C1414.71 545.713 1416.42 528.632 1420.84 510.453C1422.87 502.12 1430.56 491.801 1425 484.384C1412.58 480.621 1410.43 499.649 1407.75 508.774C1402.87 521.858 1402.23 550.34 1401.9 564.448C1394.89 564.248 1387.88 563.824 1380.89 563.177C1376.47 535.432 1362.03 483.421 1353.52 455.044C1412.38 464.148 1416.99 429.595 1462.21 423.42Z" fill="#FBFEFE"/>
<path id="Vector_21" d="M1246.16 1089.7C1267.43 1102.66 1286 1107.06 1310.01 1112.13C1312.84 1113.24 1325.51 1113.41 1327.37 1114.55C1336.3 1120 1342.96 1124.04 1352.83 1127.8C1345.71 1131.39 1329.68 1141.82 1331.39 1151.38C1332.05 1155.12 1336.22 1156.98 1339.28 1158.73C1343.17 1160.07 1348.23 1161.03 1349.88 1164.93C1347.45 1167.19 1342.81 1167.51 1339.48 1167.24C1314.9 1165.3 1274.19 1158.87 1256.42 1140.94C1243.15 1127.55 1245.69 1106.6 1246.16 1089.7Z" fill="#FBFEFE"/>
<path id="Vector_22" d="M1367.51 417.502C1385.38 415.034 1397.89 420.001 1413 429.565C1404.29 434.754 1401.24 436.383 1391.62 440.213C1381.51 442.559 1365.32 445.763 1355.46 440.633C1337.87 431.478 1356.95 420.263 1367.51 417.502Z" fill="#FBFEFE"/>
<path id="Vector_23" d="M1454.72 541.482C1460.32 542.61 1473.03 546.172 1475.99 550.795L1475.49 552.71L1471.41 555.021C1465.56 557.954 1457.52 559.552 1451.12 560.577L1454.72 541.482Z" fill="#FBFEFE"/>
<path id="Vector_24" d="M1359.22 541.848C1360.2 541.922 1360.97 542.323 1361.96 542.683C1364 547.346 1365.65 555.379 1366.9 560.568C1360.3 559.431 1356.72 558.51 1350.29 556.568C1347.12 555.536 1342.3 552.888 1339.18 551.306C1345.42 546.844 1352.12 544.54 1359.22 541.848Z" fill="#FBFEFE"/>
<path id="Vector_25" d="M1011.2 249.592C1013.86 249.291 1018.23 248.994 1020.82 249C1052.43 249.015 1067.22 248.636 1100.48 248.886C1129.18 249.101 1189.32 246.475 1216.23 260.441C1222.3 263.595 1220.08 304.627 1219.9 314.888C1214.08 324.63 1205.95 325.465 1195.54 326.758C1183.48 328.256 1171.84 330.203 1159.91 332.471C1165.18 375.723 1177.79 410.978 1200.23 448.047C1204.13 454.781 1207.64 462.23 1205.24 470.126C1203.12 477.141 1192.77 476.373 1187.71 473.801C1154.3 456.79 1132.06 419.753 1117.19 386.797C1093.55 387.189 1071.78 377.96 1068.76 409.884C1068.53 412.292 1078.53 415.282 1082.56 419.363L1083.39 420.215C1088.58 439.503 1084.63 467.591 1084.81 487.595C1084.82 489.725 1094.93 501.039 1097.21 504.295C1100.6 509.214 1102.77 514.874 1103.52 520.801C1106.82 545.009 1089.31 546.998 1085.43 565.782C1082.35 580.7 1098.1 593.586 1097.15 609.976C1096.3 624.689 1084.64 634.894 1082.94 648.2C1078.24 684.965 1119.58 719.666 1141.93 743.336C1150.95 752.843 1159.32 762.954 1166.97 773.6C1197.23 816.278 1200.86 856.991 1204.11 907.463C1209.06 984.265 1202.96 1058.11 1190.18 1133.77C1185.89 1159.49 1182.62 1184.25 1152.7 1193.02C1136.12 1197.87 1110.89 1195.88 1092.86 1195.88L1008.5 1195.84L938.025 1195.92C918.224 1195.95 894.011 1198.35 876.114 1190.35C865.305 1185.52 853.493 1171.67 850.574 1160.31C843.239 1131.78 840.202 1101.87 836.358 1072.69C816.704 919.486 843.539 767.992 893.902 623.154C908.232 581.941 929.855 527.913 949.768 488.654C940.857 478.315 943.187 434.831 946.712 421.154C947.939 416.394 956.17 413.63 960.314 412.176C944.827 369.866 903.362 398.144 876.166 381.121C855.966 368.477 884.186 327.401 894.405 314.037C925.232 273.725 961.979 256.067 1011.2 249.592Z" fill="#090E0C"/>
<path id="Vector_26" d="M969.821 491.481L1067.33 491.421C1070.03 493.906 1072.68 496.444 1075.28 499.033C1111.3 535.303 1070.84 536.159 1071.05 572.388C1071.13 586.194 1086.2 600.237 1083.19 611.574C1078.77 628.196 1067.9 634.185 1068.88 654.812C1071.82 707.391 1123.96 737.547 1152.39 776.309C1171.48 802.329 1183.31 832.538 1186.8 864.503C1190.24 896.036 1192.11 927.354 1192.07 959.015C1192.21 1012.84 1187.88 1066.58 1179.13 1119.69C1177.06 1132.43 1175.31 1146.72 1170.97 1158.76C1161.81 1184.19 1137.25 1182.28 1115.5 1182.13L969.044 1182.25C945.125 1182.26 921.15 1182.65 897.265 1181.7C883.092 1181.13 867.205 1171.78 863.863 1157.24C812.041 931.759 864.206 697.944 963.1 492.932C963.846 491.384 968.276 491.583 969.821 491.481Z" fill="#FBFEFE"/>
<path id="Vector_27" d="M985.38 730.394C1044.34 723.33 1129.83 784.795 1149.8 840.321C1162.09 874.475 1165.17 924.307 1165.34 960.824C1165.47 999.173 1162.93 1037.48 1157.76 1075.48C1156.09 1088.55 1154.86 1102.51 1150.91 1115.04C1140.23 1148.92 1113.33 1148.44 1084.35 1148.33L1051.75 1148.18L967.747 1148.28C952.604 1148.3 935.709 1149.73 920.813 1147.13C913.377 1145.83 906.927 1143.37 901.087 1138.54C894.691 1133.26 889.116 1126.36 885.815 1118.71C879.203 1103.38 876.525 1067.86 874.715 1050C867.416 977.96 863.979 825.418 912.164 767.083C931.123 744.131 956.184 733.126 985.38 730.394Z" fill="#090E0C"/>
<path id="Vector_28" d="M981.523 744.23C985.87 744.011 990.221 743.875 994.573 743.821C1035.16 743.454 1076.29 771.304 1105.64 798.403C1151.11 840.395 1150.74 909.004 1151.96 966.569C1152.95 1013.11 1146.72 1064.76 1137.98 1110.36C1137.05 1115.2 1131.91 1123.18 1128.22 1126.65C1112.85 1139.39 1074.76 1135.03 1055.25 1134.88L971.293 1135.02C931.681 1135.08 902.409 1144.08 894.35 1096.35C880.812 1018.54 880.016 939.039 891.993 860.969C901.235 803.783 915.9 754.585 981.523 744.23Z" fill="#FBFEFE"/>
<path id="Vector_29" d="M966.044 536.686C970.819 537.615 972.137 538.058 974.132 542.442C974.108 546.405 972.595 550.973 970.888 554.528C949.474 599.108 934.718 646.5 920.5 693.744C920.012 695.364 917.858 697.696 916.629 698.949C914.57 698.523 911.734 697.952 910.126 696.662C908.669 695.493 907.967 693.631 908.222 691.982C912.4 665.008 952.23 551.611 966.044 536.686Z" fill="#090E0C"/>
<path id="Vector_30" d="M1026.48 262.49C1060.33 261.92 1094.39 262.686 1128.27 262.342C1139.02 262.232 1150.24 262.134 1160.95 262.837L1160.89 317.918C1145.51 320.7 1133.4 322.381 1119.01 329.033C1082.2 346.043 1063.25 374.67 1053.56 412.582L1020.25 412.686L973.619 412.703C954.33 333.499 851.356 411.775 893.912 338.934C922.947 289.237 969.349 265.426 1026.48 262.49Z" fill="#FBFEFE"/>
<path id="Vector_31" d="M1143.06 335.154C1144.58 334.955 1144.46 335.122 1146.05 335.456C1148.68 342.672 1150.98 364.025 1153.37 373.313C1162.27 407.777 1175.74 432.128 1192.74 462.7C1188.32 459.359 1183.86 456.064 1179.36 452.817C1147.98 424.262 1126.8 386.227 1119.05 344.513C1126.17 340.026 1135.02 337.535 1143.06 335.154Z" fill="#FBFEFE"/>
<path id="Vector_32" d="M1174.76 264.679C1181.86 265.692 1199.51 267.542 1205.27 269.537C1208.44 275.348 1207.32 300.855 1206.47 308.588C1206.25 310.62 1204.87 310.743 1203.19 311.541C1194.19 312.543 1183.37 314.479 1174.29 315.866C1174.04 300.846 1173.71 279.3 1174.76 264.679Z" fill="#FBFEFE"/>
<path id="Vector_33" d="M1008.25 426.14L1021.63 426.144C1022.09 442.347 1020.67 462.923 1022.06 478.345C1017.54 478.453 1012.9 478.194 1008.37 478.026L1008.25 426.14Z" fill="#FBFEFE"/>
<path id="Vector_34" d="M1034.81 426.152L1047.9 426.01L1047.86 478.154L1034.89 478.191L1034.81 426.152Z" fill="#FBFEFE"/>
<path id="Vector_35" d="M982.038 425.982C985.894 426.19 990.951 426.083 994.912 426.118L995.063 477.92L981.974 478.08C981.892 460.714 981.913 443.347 982.038 425.982Z" fill="#FBFEFE"/>
<path id="Vector_36" d="M958.992 426.428C962.602 426.274 966.029 425.694 968.582 427.708C969.733 437.529 969.149 467.276 968.748 478.044C964.974 478.107 962.343 478.468 958.82 477.154C957.505 472.519 957.476 430.565 958.992 426.428Z" fill="#FBFEFE"/>
<path id="Vector_37" d="M1061.48 426.431L1071.81 427.036C1072.11 443.658 1071.84 461.204 1071.82 477.883C1068.75 477.995 1063.8 478.425 1061.55 476.691C1060.62 469.259 1060.69 434.123 1061.48 426.431Z" fill="#FBFEFE"/>
<path id="Vector_38" d="M1105.59 352.733C1107.53 354.778 1111.3 369.143 1112.57 373.169L1092.75 373.185C1089.62 373.2 1090.09 373.668 1087.82 372.273C1088.37 366.279 1100.99 356.577 1105.59 352.733Z" fill="#FBFEFE"/>
</g>
<defs>
<clipPath id="clip0_1_2">
<rect width="2816" height="1536" fill="white"/>
</clipPath>
</defs>
</svg>
