<?xml version="1.0" encoding="UTF-8"?><svg id="Layer_9" xmlns="http://www.w3.org/2000/svg" viewBox="0 0 398.3 182.3"><defs><style>.cls-1{fill:#6366F1;opacity:.15;}.cls-2{fill:#0f172a;}</style></defs><circle class="cls-1" cx="97.8" cy="91.15" r="82.06"/><path class="cls-2" d="M61.55,37.86v86.14h33.94v19.76h-59.44V37.86h25.49Z"/><path class="cls-2" d="M120.23,50.53c-4.83,0-8.82-1.41-11.99-4.22-3.17-2.81-4.75-6.28-4.75-10.41s1.58-7.92,4.75-10.79,7.17-4.3,11.99-4.3,8.8,1.43,11.92,4.3c3.12,2.87,4.68,6.46,4.68,10.79s-1.56,7.59-4.68,10.41c-3.12,2.82-7.09,4.22-11.92,4.22ZM107.41,143.76V59.58h25.34v84.18h-25.34Z"/><path class="cls-2" d="M183.74,144.81c-6.13,0-11.74-.93-16.82-2.79-5.08-1.86-9.33-4.55-12.75-8.07-3.42-3.52-5.88-7.54-7.39-12.07l23.53-5.28c.7,2.92,2.24,5.2,4.6,6.86,2.36,1.66,5.25,2.49,8.67,2.49s5.88-.68,7.69-2.04c1.81-1.36,2.72-2.99,2.72-4.9,0-2.31-1.13-4.05-3.39-5.2-2.26-1.15-5.16-2.14-8.67-2.94-3.52-.8-7.22-1.66-11.09-2.56-3.87-.9-7.59-2.24-11.16-4-3.57-1.76-6.46-4.2-8.67-7.32-2.21-3.12-3.32-7.19-3.32-12.22s1.33-9.2,4-13.12c2.66-3.92,6.56-7.09,11.69-9.5,5.13-2.41,11.26-3.62,18.4-3.62,6.23,0,11.69.96,16.37,2.87,4.68,1.91,8.55,4.58,11.62,8,3.07,3.42,5.25,7.39,6.56,11.92l-22.48,5.88c-.6-3.02-1.96-5.4-4.07-7.17-2.11-1.76-4.93-2.64-8.45-2.64-3.12,0-5.51.63-7.17,1.89-1.66,1.26-2.49,2.89-2.49,4.9,0,2.31,1.11,4.07,3.32,5.28,2.21,1.21,5.08,2.21,8.6,3.02,3.52.81,7.24,1.73,11.16,2.79,3.92,1.06,7.67,2.49,11.24,4.3,3.57,1.81,6.43,4.3,8.6,7.47,2.16,3.17,3.24,7.42,3.24,12.75,0,4.73-1.41,9-4.22,12.82-2.82,3.82-6.76,6.81-11.84,8.98-5.08,2.16-11.09,3.24-18.03,3.24Z"/><path class="cls-2" d="M268.21,144.81c-9.25,0-16.34-2.54-21.27-7.62-4.93-5.08-7.39-12.5-7.39-22.25v-34.55h-13.43v-20.82h55.66v20.82h-16.74v35c0,2.41.78,4.3,2.34,5.66,1.56,1.36,3.44,2.04,5.66,2.04,1,0,1.94-.12,2.79-.38.85-.25,1.68-.63,2.49-1.13l6.33,18.71c-2.41,1.31-4.95,2.39-7.62,3.24-2.67.85-5.61,1.28-8.82,1.28ZM232.76,66.37v-6.79c2.21,0,4.02-.7,5.43-2.11,1.41-1.41,2.11-3.22,2.11-5.43v-12.97h24.89v8.9c0,1.51-.38,3.09-1.13,4.75-.75,1.66-1.84,3.12-3.24,4.37-1.41,1.26-3.17,2.09-5.28,2.49l-22.78,6.79Z"/><path class="cls-2" d="M330.06,144.81c-7.44,0-13.88-1.91-19.31-5.73-5.43-3.82-9.63-8.98-12.6-15.46-2.97-6.49-4.45-13.8-4.45-21.95s1.48-15.34,4.45-21.87c2.96-6.54,7.17-11.71,12.6-15.54,5.43-3.82,11.87-5.73,19.31-5.73,6.43,0,12.02,1.73,16.75,5.2,4.73,3.47,8.15,8.32,10.26,14.56v-18.71h25.49v84.18h-12.82c-3.92,0-7.01-1.13-9.28-3.39-2.26-2.26-3.39-5.45-3.39-9.58v-5.73c-2.01,6.24-5.41,11.09-10.18,14.56-4.78,3.47-10.39,5.2-16.82,5.2ZM338.36,122.49c3.32,0,6.41-.83,9.28-2.49,2.87-1.66,5.15-4.02,6.86-7.09,1.71-3.07,2.56-6.81,2.56-11.24s-.86-8.07-2.56-11.24c-1.71-3.17-4-5.58-6.86-7.24-2.87-1.66-5.96-2.49-9.28-2.49s-6.41.83-9.28,2.49c-2.87,1.66-5.13,4.07-6.79,7.24s-2.49,6.92-2.49,11.24.83,8.17,2.49,11.24c1.66,3.07,3.92,5.43,6.79,7.09,2.87,1.66,5.96,2.49,9.28,2.49Z"/></svg>